<svg width="24" height="24" viewBox="0 0 24 24" fill="none" xmlns="http://www.w3.org/2000/svg">
    <path d="M20.6111 12.2519L17.2661 23.0305C17.2176 23.2414 17.3873 23.4757 17.6297 23.4757H24.3196C24.562 23.4757 24.7317 23.2648 24.6832 23.0305L21.314 12.2519C21.2413 11.9004 20.6838 11.9004 20.6111 12.2519Z" fill="#37E2E2"/>
    <path d="M2.09284 17.5956L0.00829114 23.0552C-0.0401868 23.2661 0.129486 23.477 0.371876 23.477H4.51673C4.75912 23.477 4.92879 23.2661 4.88031 23.0552L2.79576 17.5956C2.72305 17.2207 2.1898 17.2207 2.09284 17.5956Z" fill="#37E2E2"/>
    <path d="M6.64982 6.93353L2.04442 23.0312C1.99595 23.242 2.16562 23.4764 2.40801 23.4764H11.6188C11.8612 23.4764 12.0309 23.2655 11.9824 23.0312L7.37699 6.93353C7.28003 6.58205 6.74678 6.58205 6.64982 6.93353Z" fill="#1678FF"/>
    <path d="M14.4065 0.781181L7.88622 23.0314C7.83774 23.2423 8.00742 23.4766 8.24981 23.4766H21.2661C21.5085 23.4766 21.6782 23.2657 21.6297 23.0314L15.1094 0.781181C15.0125 0.406273 14.4792 0.406273 14.4065 0.781181Z" fill="#1678FF"/>
    <path d="M10.0919 9.6054L6.11669 23.0553C6.06821 23.2662 6.23788 23.5005 6.48027 23.5005H14.4306C14.673 23.5005 14.8427 23.2896 14.7942 23.0553L10.7948 9.6054C10.7221 9.23049 10.1646 9.23049 10.0919 9.6054Z" fill="#37E2E2"/>
</svg>
